<?xml version="1.0" standalone="no"?>
<!DOCTYPE svg PUBLIC "-//W3C//DTD SVG 20010904//EN"
 "http://www.w3.org/TR/2001/REC-SVG-20010904/DTD/svg10.dtd">
<svg version="1.0" xmlns="http://www.w3.org/2000/svg"
 width="1056.000000pt" height="992.000000pt" viewBox="0 0 1056.000000 992.000000"
 preserveAspectRatio="xMidYMid meet">

<g transform="translate(0.000000,992.000000) scale(0.100000,-0.100000)"
fill="#0066FF" stroke="#0066FF">
<path d="M5080 7659 c-19 -6 -56 -26 -81 -44 -25 -18 -93 -61 -150 -95 -57
-34 -113 -70 -124 -80 -11 -9 -65 -44 -120 -77 -55 -33 -140 -87 -190 -120
-49 -33 -301 -192 -560 -353 -258 -161 -509 -319 -557 -349 -48 -31 -149 -94
-223 -141 -158 -99 -201 -147 -213 -241 -4 -30 -7 -616 -7 -1304 l0 -1250 25
-50 c31 -64 88 -125 153 -166 29 -18 79 -49 112 -69 33 -20 128 -80 210 -132
83 -52 188 -118 235 -145 47 -28 153 -92 235 -143 210 -130 328 -200 336 -200
15 0 74 56 146 139 116 133 206 339 255 586 26 134 36 431 30 864 -4 285 -2
345 9 352 8 5 215 9 460 9 l447 0 39 98 c95 232 99 243 79 257 -14 10 -123 13
-514 13 -470 0 -497 1 -509 19 -11 14 -13 73 -11 288 l3 270 30 45 c46 67 104
107 167 114 29 3 273 5 541 4 269 -2 493 0 498 3 11 6 139 345 139 368 0 15
-42 16 -487 13 -825 -4 -817 -4 -901 -35 -72 -26 -176 -92 -219 -138 -38 -42
-103 -162 -131 -244 l-27 -80 -6 -1035 -5 -1035 -26 -105 c-50 -201 -132 -370
-181 -370 -21 0 -104 49 -549 326 -269 168 -293 185 -317 232 -20 39 -20 54
-18 1247 l2 1207 41 37 c23 20 120 85 215 145 96 61 242 153 324 206 245 158
474 304 508 324 18 11 95 61 172 112 77 50 194 125 260 166 66 41 193 122 281
180 203 133 219 141 261 135 29 -5 335 -183 461 -269 23 -16 131 -84 240 -152
108 -67 247 -153 307 -191 61 -38 175 -109 255 -158 80 -49 168 -104 195 -121
28 -18 79 -50 115 -71 142 -83 336 -217 355 -245 11 -16 21 -27 23 -26 1 2 13
65 26 141 l23 137 -36 22 c-20 13 -68 43 -108 67 -114 70 -274 169 -328 204
-27 18 -120 75 -205 127 -167 103 -346 215 -450 283 -76 49 -755 467 -785 483
-32 16 -136 23 -175 11z"/>
<path d="M7351 6476 c-1 -33 -18 -123 -41 -213 -46 -179 -49 -234 -19 -346 31
-114 145 -277 193 -277 40 0 122 261 113 356 -11 109 -63 243 -146 379 -44 72
-85 137 -90 145 -7 11 -10 -1 -10 -44z"/>
<path d="M7097 6004 c-23 -38 -59 -210 -64 -309 -9 -171 29 -300 123 -424 51
-68 154 -143 189 -139 29 4 47 76 49 193 2 164 -29 237 -196 455 -26 34 -53
81 -58 103 -29 110 -36 131 -43 121z"/>
<path d="M7810 5839 c0 -79 -29 -140 -100 -214 -93 -96 -161 -204 -189 -300
-21 -69 -23 -92 -18 -181 8 -120 12 -134 41 -134 72 0 201 105 271 220 72 118
82 272 35 515 -22 115 -40 156 -40 94z"/>
<path d="M6890 5422 c0 -16 -9 -83 -21 -148 -33 -187 -16 -330 57 -465 39 -72
153 -182 228 -220 l61 -30 12 68 c18 101 15 191 -7 279 -26 99 -67 168 -153
258 -73 76 -110 138 -136 225 -19 61 -41 79 -41 33z"/>
<path d="M7909 5079 c-21 -46 -35 -59 -123 -116 -117 -76 -262 -216 -294 -284
-24 -53 -72 -234 -72 -273 0 -19 5 -26 19 -26 40 0 205 62 257 96 105 70 190
193 218 315 17 75 37 320 27 332 -4 4 -18 -16 -32 -44z"/>
<path d="M7395 5003 c-6 -43 -32 -169 -70 -338 -26 -117 -144 -444 -218 -602
-131 -282 -280 -509 -507 -768 -178 -204 -312 -325 -489 -444 -219 -147 -836
-482 -916 -497 -32 -6 -2 -23 -523 308 -94 60 -181 112 -191 115 -14 3 -40
-16 -95 -72 -42 -42 -76 -83 -76 -90 0 -14 71 -60 490 -321 339 -210 353 -217
413 -210 27 3 67 16 90 29 210 121 643 407 797 527 433 336 798 776 1033 1245
173 344 263 672 274 1003 6 160 1 207 -12 115z"/>
<path d="M6747 4803 c-9 -38 -21 -95 -28 -128 -7 -33 -13 -112 -13 -175 0
-127 16 -201 62 -280 37 -65 140 -168 195 -196 l47 -24 10 26 c36 93 39 296 6
400 -19 61 -70 139 -152 232 -53 60 -63 79 -79 141 -9 39 -21 71 -25 71 -5 0
-15 -30 -23 -67z"/>
<path d="M7820 4355 c-34 -37 -104 -71 -186 -91 -156 -38 -301 -150 -370 -287
-26 -50 -59 -165 -50 -174 11 -11 214 16 267 36 121 46 228 139 276 241 43 90
95 249 91 278 l-3 24 -25 -27z"/>
<path d="M6552 4272 c-101 -262 -95 -240 -95 -347 -1 -119 15 -182 70 -273 39
-65 128 -172 142 -172 27 0 105 208 117 308 9 79 -10 139 -96 314 -39 77 -75
167 -82 199 -7 33 -14 59 -18 59 -3 0 -20 -40 -38 -88z"/>
<path d="M6300 3920 c-7 -19 -48 -103 -91 -187 -45 -88 -83 -177 -90 -210 -16
-78 -6 -224 19 -288 27 -67 115 -220 127 -220 20 0 113 155 145 241 52 141 47
179 -53 459 -14 39 -30 108 -35 155 -9 85 -9 85 -22 50z"/>
<path d="M7581 3705 c-26 -13 -88 -30 -150 -40 -276 -44 -309 -55 -394 -140
-59 -58 -140 -167 -151 -202 -10 -30 12 -38 141 -53 122 -14 194 0 288 57 68
41 163 128 204 188 41 59 124 215 114 214 -4 0 -28 -11 -52 -24z"/>
<path d="M7250 3118 c-32 -18 -49 -19 -216 -14 -196 6 -239 0 -329 -47 -57
-29 -193 -142 -220 -183 -16 -25 -16 -27 2 -46 11 -10 52 -30 93 -44 231 -81
458 14 671 282 65 81 64 89 -1 52z"/>
</g>
</svg>
